<?xml version="1.0" encoding="UTF-8"?>
<svg version="1.1" xmlns="http://www.w3.org/2000/svg" width="1920" height="1920">
<path d="M0 0 C633.6 0 1267.2 0 1920 0 C1920 633.6 1920 1267.2 1920 1920 C1286.4 1920 652.8 1920 0 1920 C0 1286.4 0 652.8 0 0 Z " fill="#FEFEFE" transform="translate(0,0)"/>
<path d="M0 0 C6.09741555 4.21012026 8.55995222 8.16864514 10.625 15.0625 C10.99890869 16.24416748 10.99890869 16.24416748 11.38037109 17.44970703 C12.14842813 19.89840764 12.89128052 22.35330867 13.625 24.8125 C13.9657959 25.95380371 13.9657959 25.95380371 14.31347656 27.11816406 C15.15446697 29.95077828 15.99318455 32.78363712 16.80078125 35.62597656 C19.14208837 43.82470273 21.96563086 51.8686835 24.703125 59.94140625 C29.74200173 74.83559748 34.36429294 89.81340768 38.77001953 104.90576172 C40.27937031 110.03720955 41.8587059 115.14382808 43.48828125 120.23828125 C44.28762325 122.75167619 45.05373167 125.26238537 45.79296875 127.79296875 C48.16345745 135.69202079 50.94747793 141.76527882 56.625 147.8125 C57.40875 148.72 58.1925 149.6275 59 150.5625 C69.00338117 159.13682671 78.91354724 160.06097344 91.625 160.25 C104.21525855 160.52815108 116.75585328 161.1655389 129.3125 162.125 C130.54702408 162.21908142 130.54702408 162.21908142 131.80648804 162.31506348 C142.75223834 163.16761281 153.57744561 164.38987513 164.4375 166 C182.74613219 168.66321069 196.39975265 170.3636281 212.07421875 159.04370117 C220.69479511 151.50317214 225.62966956 138.25001547 230.72079468 128.16049194 C232.79366093 124.05380538 234.88447077 119.95629327 236.9765625 115.859375 C237.3829747 115.06307175 237.7893869 114.26676849 238.20811462 113.44633484 C241.30142326 107.40311024 244.49983602 101.42614852 247.8125 95.5 C251.14908289 89.52796415 254.33393791 83.51792722 257.3581543 77.38208008 C262.42571099 67.12119879 267.71541418 56.97268256 273.03613281 46.84130859 C273.99900885 45.00580765 274.95785672 43.16817545 275.90917969 41.32666016 C283.34765515 26.9679904 283.34765515 26.9679904 290.625 23.8125 C299.98571305 22.08623102 307.08213969 25.85855275 315.125 30.1875 C316.36891732 30.83573428 317.61388686 31.48195311 318.85986328 32.1262207 C322.46204573 33.99621621 326.0437752 35.9026862 329.625 37.8125 C331.38202746 38.73717032 333.13974502 39.66053167 334.8984375 40.58203125 C337.18298056 41.78079917 339.46602029 42.98193811 341.74414062 44.19287109 C348.46817388 47.76373584 355.2712996 51.16827465 362.10107422 54.53198242 C367.94768448 57.42587918 373.72838169 60.43339568 379.49609375 63.48046875 C388.96777077 68.48403005 398.48820704 73.38849135 408.02612305 78.2644043 C410.71791001 79.64054674 413.40881949 81.0183935 416.09960938 82.39648438 C417.84890829 83.29176446 419.59825547 84.18695023 421.34765625 85.08203125 C422.13326431 85.48420364 422.91887238 85.88637604 423.72828674 86.30073547 C428.58113423 88.78086075 433.44845986 91.2301475 438.32763672 93.65808105 C442.09990351 95.5536351 445.83120697 97.52534175 449.5625 99.5 C450.37243408 99.92716309 451.18236816 100.35432617 452.0168457 100.79443359 C456.1852309 102.99306271 460.35087619 105.19683618 464.515625 107.40234375 C475.79659647 113.36890219 487.15635768 119.14867902 498.61328125 124.76953125 C505.59092595 128.20490131 512.50013167 131.7461339 519.3125 135.5 C519.97185547 135.85634521 520.63121094 136.21269043 521.31054688 136.57983398 C530.64790725 141.80494167 530.64790725 141.80494167 532.23168945 146.67993164 C533.89504123 155.69878809 531.89712949 161.45350913 527.25 169.1875 C526.13490427 171.1310277 525.02298284 173.0763797 523.9140625 175.0234375 C523.3562207 175.9937793 522.79837891 176.96412109 522.22363281 177.96386719 C519.86323381 182.169905 517.73804691 186.47836745 515.625 190.8125 C511.65570697 198.88018832 507.42578909 206.78013765 503.09472656 214.65869141 C496.42389175 226.79548714 489.95675017 239.03019891 483.8190918 251.44555664 C480.19078677 258.75414291 476.38113335 265.96857226 472.57275391 273.18457031 C472.07565918 274.13041992 471.57856445 275.07626953 471.06640625 276.05078125 C470.61982666 276.89680908 470.17324707 277.74283691 469.71313477 278.61450195 C465.76114901 286.59738905 466.51681075 297.87159767 468.42578125 306.3828125 C471.2865561 313.91323701 476.04764026 319.14046285 481.625 324.8125 C483.03568144 326.3412406 484.431142 327.88300146 485.82617188 329.42602539 C489.21141567 333.1682522 492.62211314 336.86468354 496.25 340.375 C499.93268298 343.98753664 503.08846469 347.99057663 506.31640625 352.0078125 C508.44539988 354.59430561 510.65552686 357.04883898 512.9375 359.5 C520.20619918 367.48799754 526.41710427 376.37801099 532.7421875 385.1171875 C540.92846664 396.3561532 548.55384451 406.04471113 562.625 409.5625 C571.01537841 410.2616982 577.56671085 409.29125945 585.625 406.8125 C587.12973137 406.36947052 588.63498278 405.92820525 590.140625 405.48828125 C599.30797912 402.79385903 608.39830079 399.92669696 617.44726562 396.85888672 C622.34195877 395.20939708 627.25591517 393.76157928 632.25390625 392.453125 C637.90697809 390.92577116 643.38701346 388.9052378 648.875 386.875 C653.77741932 385.08126748 658.72277174 383.51850116 663.71875 382.0078125 C667.68179379 380.80414335 671.62758135 379.54790109 675.57324219 378.28857422 C677.48709973 377.67813653 679.40182091 377.07040016 681.31738281 376.46533203 C685.60975424 375.10772088 689.89025458 373.73437779 694.140625 372.25 C702.76074268 369.2812669 712.2152489 366.08450993 721.06640625 369.8515625 C729.08752206 375.13988563 731.16428572 384.95615617 733.6875 393.75 C733.93048828 394.57951172 734.17347656 395.40902344 734.42382812 396.26367188 C735.41183391 399.6365192 736.39299144 403.01133358 737.37060547 406.38720703 C738.71212995 410.95292894 740.17345004 415.41943173 741.88378906 419.85986328 C743.18590427 423.29013911 744.34080656 426.76932849 745.5 430.25 C745.75974609 431.02859375 746.01949219 431.8071875 746.28710938 432.609375 C748.23602215 438.50852909 750.01278284 444.44577246 751.72998047 450.41577148 C753.23251978 455.59457146 754.89357824 460.70604059 756.625 465.8125 C758.5281757 471.42623972 760.31205111 477.04979567 761.9375 482.75 C764.11017321 490.34706537 766.60184391 497.8253701 769.125 505.3125 C771.75445178 513.11574258 774.29844433 520.90379138 776.53344727 528.82910156 C778.78976947 536.65451815 781.46040327 544.34717647 784.0625 552.0625 C787.48884397 562.22373849 790.76528384 572.38183672 793.61987305 582.72167969 C796.20877313 592.05882099 798.95762112 601.56425631 802.765625 610.484375 C804.67527101 615.65777963 804.42819436 621.02338553 802.9140625 626.28125 C799.28584419 633.39158387 792.45037742 635.57216661 785.33203125 638 C777.22190503 640.62003717 769.05661694 643.06848112 760.87939453 645.4699707 C753.36923576 647.67556661 745.91034197 649.97826325 738.5 652.5 C730.94633976 655.06949181 723.35176258 657.42988348 715.70043945 659.69091797 C709.80117049 661.44052873 703.97080234 663.34373761 698.1484375 665.3359375 C694.32387436 666.6132283 690.46651794 667.76524132 686.6015625 668.9140625 C684.65563218 669.49806239 682.70998288 670.08299124 680.76437378 670.6680603 C678.86344989 671.23480959 676.95825305 671.78716447 675.05297852 672.33911133 C663.35995307 675.85982011 652.19990829 680.84263714 645.8984375 691.8203125 C642.62316797 698.26219333 640.51639964 703.16017454 640.44921875 710.43359375 C640.42886065 711.83758064 640.40740147 713.24155188 640.38500977 714.64550781 C640.37382111 715.39401001 640.36263245 716.14251221 640.35110474 716.91369629 C640.09313855 732.52544266 639.11256851 748.01528011 637.6875 763.5625 C637.60204926 764.51720184 637.51659851 765.47190369 637.42855835 766.45553589 C637.18089486 769.19518961 636.92289449 771.93362954 636.66015625 774.671875 C636.54914078 775.88234245 636.54914078 775.88234245 636.43588257 777.11726379 C635.92795962 782.1836602 634.94149239 786.89337492 633.625 791.8125 C630.99179806 806.05129567 629.36483221 820.4615295 637.203125 833.421875 C643.01890992 841.22864936 649.93589781 846.34234683 658.5625 850.6875 C659.39442871 851.11603271 660.22635742 851.54456543 661.08349609 851.98608398 C666.9318856 854.9883316 672.81392957 857.92539898 678.70483398 860.84326172 C684.28309743 863.61397301 689.77969582 866.52737516 695.27441406 869.45947266 C699.98142631 871.96336256 704.72193023 874.38480778 709.5 876.75 C716.24478767 880.08887103 722.90352166 883.5761519 729.55371094 887.09912109 C734.5871524 889.75877931 739.64871782 892.34816108 744.75 894.875 C750.45546104 897.71511898 756.15055159 900.57394894 761.8125 903.5 C762.51971191 903.85650635 763.22692383 904.2130127 763.95556641 904.58032227 C769.37814469 907.40929457 773.1907675 910.66115125 776.625 915.8125 C779.04025375 925.73163372 773.54856671 933.47136846 768.82128906 941.69091797 C767.0923181 944.75719505 765.54366409 947.9000564 764 951.0625 C755.70945365 967.82090747 746.99192174 984.38054882 738.26220703 1000.91333008 C735.02942729 1007.03581633 731.82433795 1013.17247893 728.625 1019.3125 C725.01626525 1026.23784742 721.39500387 1033.15617689 717.75 1040.0625 C713.67128866 1047.79339077 709.64384424 1055.55034021 705.625 1063.3125 C701.21618539 1071.82786447 696.7882483 1080.3321348 692.3125 1088.8125 C689.06427009 1094.96927564 685.84214482 1101.13943151 682.625 1107.3125 C681.11026362 1110.21610711 679.59523316 1113.11956055 678.08007812 1116.02294922 C677.13535097 1117.83409897 676.1913009 1119.64560213 675.24804688 1121.45751953 C672.77446739 1126.20704716 670.28653202 1130.94825166 667.765625 1135.67285156 C667.01183495 1137.08685327 666.26176223 1138.50284361 665.515625 1139.92089844 C664.48413045 1141.87270289 663.43307658 1143.81250651 662.375 1145.75 C661.79234375 1146.83152344 661.2096875 1147.91304687 660.609375 1149.02734375 C657.6996519 1153.11126613 654.34862789 1155.23795737 649.625 1156.8125 C642.01798017 1157.70276593 636.79587491 1156.07361038 630.1875 1152.4375 C629.32987061 1151.98705322 628.47224121 1151.53660645 627.58862305 1151.07250977 C625.80507576 1150.13313894 624.02617275 1149.1848989 622.25195312 1148.22802734 C619.74583633 1146.87761237 617.22808221 1145.55306689 614.703125 1144.23828125 C608.52282194 1141.01585662 602.36984561 1137.74258544 596.21875 1134.46484375 C586.75896041 1129.4290674 577.2266316 1124.57141342 567.625 1119.8125 C556.01442058 1114.05078109 544.40994707 1108.28338168 532.9375 1102.25 C532.16623779 1101.84475098 531.39497559 1101.43950195 530.6003418 1101.02197266 C527.69241028 1099.48295961 524.85870882 1097.9657695 522.10546875 1096.16015625 C516.14575145 1092.92219961 509.83291216 1092.44708465 503.1875 1092.5 C502.44250244 1092.50563965 501.69750488 1092.5112793 500.92993164 1092.51708984 C489.51445406 1092.76902107 482.15094569 1097.09524812 474.25 1105.1875 C473.38375 1106.05375 472.5175 1106.92 471.625 1107.8125 C470.965 1107.8125 470.305 1107.8125 469.625 1107.8125 C469.36460938 1108.40933594 469.10421875 1109.00617188 468.8359375 1109.62109375 C467.53599639 1111.97356783 466.3132846 1113.17300785 464.25 1114.875 C461.21091561 1117.44146006 458.24731534 1120.06379286 455.33422852 1122.77294922 C449.29837128 1128.38369153 443.06090735 1133.6620715 436.625 1138.8125 C435.49416043 1139.73490375 434.36398485 1140.65812196 433.234375 1141.58203125 C425.67244834 1147.73566387 417.94643469 1153.58102124 409.96655273 1159.18457031 C400.07855683 1166.18599446 393.04250094 1172.73477051 388.25 1184.0625 C385.53522521 1200.35114872 391.00767599 1214.15987125 396 1229.5 C396.79332806 1231.95300883 397.58629576 1234.40613422 398.37890625 1236.859375 C398.76191895 1238.04337891 399.14493164 1239.22738281 399.53955078 1240.44726562 C401.02190839 1245.043041 402.48484089 1249.64476153 403.9375 1254.25 C404.29992798 1255.39819214 404.29992798 1255.39819214 404.66967773 1256.56958008 C405.99156063 1260.76842057 407.28527883 1264.97481673 408.5625 1269.1875 C410.29882573 1274.86673207 412.17443036 1280.49492793 414.0625 1286.125 C416.24894471 1292.65390996 418.42185922 1299.18568934 420.5 1305.75 C420.88929687 1306.97589844 421.27859375 1308.20179687 421.6796875 1309.46484375 C423.65007894 1316.44263493 425.4921155 1324.81153822 422.3125 1331.625 C415.32963855 1337.30872444 406.03220955 1339.8809699 397.625 1342.8125 C396.29797035 1343.28066442 394.97116222 1343.74945704 393.64453125 1344.21875 C390.72324456 1345.2516764 387.80135596 1346.28286871 384.87890625 1347.3125 C375.7276503 1350.53826144 366.59876846 1353.81669352 357.5 1357.1875 C348.37293513 1360.56550808 339.19534564 1363.78838457 330.00341797 1366.98486328 C326.35430504 1368.25467367 322.70730982 1369.53039108 319.0625 1370.8125 C318.02790649 1371.17637817 318.02790649 1371.17637817 316.97241211 1371.54760742 C312.59695404 1373.09437336 308.24332196 1374.69331675 303.89575195 1376.31665039 C294.7526232 1379.72917945 285.53797912 1382.85293124 276.26538086 1385.89526367 C270.63746108 1387.75793966 265.09966333 1389.72637744 259.625 1392 C253.30289035 1394.61702627 246.92825036 1396.68199143 240.37890625 1398.63671875 C236.39478478 1399.88460695 232.51798436 1401.30978393 228.625 1402.8125 C219.36069729 1406.35356645 210.08238386 1409.73151791 200.65283203 1412.80786133 C199.58137939 1413.15820435 199.58137939 1413.15820435 198.48828125 1413.515625 C197.47471558 1413.84639038 197.47471558 1413.84639038 196.44067383 1414.18383789 C194.47230145 1414.83838304 194.47230145 1414.83838304 192.03125 1415.94921875 C186.75090286 1417.84362901 181.11179947 1417.62994642 175.625 1416.8125 C168.33571347 1412.89258156 164.98008682 1406.1464808 162.25 1398.625 C160.71052046 1394.51509817 159.08711091 1390.58098252 157.0625 1386.6875 C154.85206367 1382.42500751 153.22754296 1378.1030932 151.6484375 1373.57421875 C150.64417722 1370.86424922 149.48966258 1368.29710817 148.25 1365.6875 C146.14413176 1361.16212357 144.43298177 1356.58838926 142.8125 1351.875 C139.70932379 1342.85268892 136.17791225 1334.02316742 132.58740234 1325.18554688 C130.48809662 1320.0091766 128.41264397 1314.82346987 126.37548828 1309.62231445 C125.01114516 1306.13967535 123.63118768 1302.66348899 122.25 1299.1875 C121.79367187 1298.011875 121.33734375 1296.83625 120.8671875 1295.625 C116.16504473 1283.86964307 109.7607414 1274.06270037 97.88043213 1268.68850708 C90.19733382 1265.7044011 82.03155852 1265.4833404 73.890625 1265.3203125 C71.61521501 1265.25720466 69.33982493 1265.19337585 67.06445312 1265.12890625 C65.88890869 1265.09812988 64.71336426 1265.06735352 63.50219727 1265.03564453 C43.6858934 1264.49945592 24.25960931 1263.57585439 4.69018555 1260.31884766 C-16.94256591 1256.0045614 -16.94256591 1256.0045614 -37.375 1261.8125 C-38.05820312 1262.24820312 -38.74140625 1262.68390625 -39.4453125 1263.1328125 C-50.61483266 1270.90475999 -55.78795512 1281.77697191 -61.6875 1293.625 C-62.5385097 1295.31200962 -63.39081123 1296.99836818 -64.24438477 1298.68408203 C-65.90125952 1301.95765983 -67.55357901 1305.23346297 -69.20214844 1308.51123047 C-71.68251337 1313.43340059 -74.22569041 1318.32047381 -76.8125 1323.1875 C-77.56014637 1324.59752344 -78.30754424 1326.00767866 -79.0546875 1327.41796875 C-79.42303711 1328.11325684 -79.79138672 1328.80854492 -80.17089844 1329.52490234 C-81.56511528 1332.17368819 -82.94347187 1334.83042244 -84.3203125 1337.48828125 C-89.14444908 1346.79582178 -94.00718755 1356.0537512 -99.21411133 1365.15332031 C-101.84218189 1369.7781473 -104.26767268 1374.48199708 -106.625 1379.25 C-106.95773926 1379.92063477 -107.29047852 1380.59126953 -107.63330078 1381.28222656 C-109.01484932 1384.06761791 -110.39529628 1386.85354611 -111.7734375 1389.640625 C-114.63473522 1395.14452253 -117.69051487 1398.97025743 -123.375 1401.8125 C-131.47988763 1402.75548398 -137.33370836 1402.06254793 -144.24121094 1397.69946289 C-147.60719506 1395.67268732 -151.06157442 1393.90732671 -154.5859375 1392.1796875 C-156.01673465 1391.47113884 -157.44713972 1390.76179802 -158.87719727 1390.05175781 C-159.98733688 1389.50074402 -159.98733688 1389.50074402 -161.11990356 1388.93859863 C-164.83928969 1387.08129641 -168.53932644 1385.18665396 -172.23828125 1383.2890625 C-172.99597305 1382.90045044 -173.75366486 1382.51183838 -174.53431702 1382.1114502 C-176.91907608 1380.88750903 -179.30331951 1379.66256778 -181.6875 1378.4375 C-183.38474185 1377.56603443 -185.08200794 1376.69461605 -186.77929688 1375.82324219 C-190.25758989 1374.03730057 -193.73558313 1372.25077688 -197.21337891 1370.46386719 C-201.39922337 1368.31333979 -205.58612598 1366.16488343 -209.77348328 1364.01730347 C-212.89996162 1362.41358992 -216.02589842 1360.80882294 -219.15170288 1359.20379639 C-220.60514415 1358.45769401 -222.05877011 1357.71195128 -223.51260376 1356.96661377 C-231.47694733 1352.88288073 -239.40732022 1348.74472595 -247.29669189 1344.51785278 C-251.53912873 1342.24812416 -255.80627434 1340.05777934 -260.125 1337.9375 C-266.09141458 1334.98700984 -271.99331264 1331.92824945 -277.875 1328.8125 C-285.55016404 1324.75138812 -293.27755931 1320.8165414 -301.05761719 1316.9609375 C-314.83111564 1310.13513296 -328.59563409 1303.3037371 -342.1484375 1296.046875 C-344.815548 1294.62103845 -347.49737874 1293.25598027 -350.2265625 1291.953125 C-357.32889143 1288.45807374 -362.35711345 1285.34603367 -365.375 1277.8125 C-367.0294531 1268.57459316 -363.54243476 1261.89580653 -359.125 1254 C-358.48117119 1252.80995249 -357.83943806 1251.61876903 -357.19970703 1250.42651367 C-355.28506018 1246.87332085 -353.33172491 1243.34269466 -351.375 1239.8125 C-350.31385671 1237.87828802 -349.25386984 1235.94344093 -348.1953125 1234.0078125 C-346.7256744 1231.32063279 -345.25503262 1228.63412891 -343.77636719 1225.9519043 C-339.59444559 1218.32967925 -335.7244481 1210.56873711 -331.87451172 1202.77490234 C-328.06432889 1195.09870529 -324.03079829 1187.56880867 -319.89477539 1180.06420898 C-316.12103336 1173.20867071 -312.43892607 1166.30959893 -308.8125 1159.375 C-308.31169922 1158.42165771 -307.81089844 1157.46831543 -307.29492188 1156.48608398 C-301.40692502 1145.18763185 -297.04054905 1134.87064865 -300.05859375 1121.8671875 C-303.51879309 1111.55837785 -310.1168579 1104.91857139 -317.71875 1097.4609375 C-320.43714526 1094.75053752 -322.95268044 1091.94577761 -325.44140625 1089.02734375 C-327.4737464 1086.69939048 -329.56842839 1084.44134238 -331.67797852 1082.18359375 C-337.51791949 1075.92917024 -343.03613667 1069.50399481 -348.375 1062.8125 C-349.29591185 1061.68280792 -350.21784111 1060.55394468 -351.140625 1059.42578125 C-357.30285003 1051.85265579 -363.15060128 1044.13179386 -368.65917969 1036.06616211 C-374.4212914 1027.83869239 -380.89419645 1022.24969854 -390.375 1018.8125 C-391.77685547 1018.27689453 -391.77685547 1018.27689453 -393.20703125 1017.73046875 C-396.73933563 1016.70692802 -399.76184248 1016.47681185 -403.4375 1016.4375 C-404.62472656 1016.40914062 -405.81195313 1016.38078125 -407.03515625 1016.3515625 C-413.05292903 1016.6938471 -418.69250164 1018.94834021 -424.375 1020.8125 C-426.56342963 1021.48464319 -428.75352789 1022.15137904 -430.9453125 1022.8125 C-432.02683594 1023.1425 -433.10835937 1023.4725 -434.22265625 1023.8125 C-436.41470026 1024.48134776 -438.60741507 1025.1480009 -440.80078125 1025.8125 C-446.93977119 1027.69013611 -452.98736895 1029.716676 -459.00732422 1031.94628906 C-461.77055118 1032.95721185 -464.55564069 1033.84649793 -467.375 1034.6875 C-471.99356867 1036.08292063 -476.59860792 1037.51274196 -481.19580078 1038.9765625 C-487.94287766 1041.12477753 -494.69748292 1043.22166539 -501.5 1045.1875 C-508.914069 1047.33614038 -516.27189924 1049.65178236 -523.625 1052 C-525.25139404 1052.51796143 -525.25139404 1052.51796143 -526.91064453 1053.04638672 C-527.93528809 1053.37525879 -528.95993164 1053.70413086 -530.015625 1054.04296875 C-531.38509277 1054.48225708 -531.38509277 1054.48225708 -532.78222656 1054.93041992 C-534.55895676 1055.53487625 -536.31728383 1056.19547175 -538.0559082 1056.90209961 C-542.09886389 1058.48923318 -546.10783351 1058.36730014 -550.375 1057.8125 C-558.56701609 1053.71649196 -561.55852851 1047.08392183 -564.375 1038.8125 C-565.35605646 1035.56120098 -566.30661318 1032.30381923 -567.23803711 1029.03808594 C-569.1028754 1022.56661568 -571.21885601 1016.19209643 -573.375 1009.8125 C-576.19607869 1001.44973531 -578.84974384 993.06721267 -581.2890625 984.5859375 C-582.33118426 980.96475182 -583.40286473 977.35487302 -584.5 973.75 C-584.93699219 972.30947266 -584.93699219 972.30947266 -585.3828125 970.83984375 C-586.1234503 968.58002368 -586.93944032 966.34464418 -587.79296875 964.125 C-589.68809924 959.12901541 -591.10743832 954.01292249 -592.5625 948.875 C-597.48353728 931.74353879 -602.96674166 914.78627942 -608.69921875 897.91015625 C-611.72176985 888.98437555 -614.56423973 880.01405596 -617.3125 871 C-620.01564635 862.13740403 -622.8246866 853.32324986 -625.78735352 844.54418945 C-628.88638426 835.34686482 -631.81198749 826.09543777 -634.72998047 816.83935547 C-635.26462966 815.15931852 -635.81747207 813.48508378 -636.375 811.8125 C-636.9385668 806.12264289 -636.70296433 801.64341597 -633.375 796.8125 C-627.89221222 790.63045813 -621.08159409 788.57958603 -613.375 786.1875 C-612.17125732 785.79997559 -610.96751465 785.41245117 -609.72729492 785.01318359 C-602.36985396 782.66931666 -594.99527361 780.47893977 -587.48828125 778.6640625 C-584.45724818 777.83499699 -581.58081683 776.76962524 -578.65014648 775.64257812 C-574.08319446 773.97634389 -569.40420134 772.64888709 -564.75 771.25 C-554.07916976 768.01239402 -543.50147038 764.54915799 -532.94207764 760.9697876 C-525.46981631 758.44033757 -518.01590964 756.0850704 -510.375 754.125 C-498.67495942 751.08480006 -486.43135543 746.19618565 -479.75 735.625 C-479.18023437 734.74457031 -478.61046875 733.86414063 -478.0234375 732.95703125 C-473.51757378 724.36172249 -472.99257432 716.81938622 -472.9375 707.1875 C-472.70767667 692.92810516 -471.71297188 678.76918105 -470.5 664.5625 C-470.418638 663.57965027 -470.337276 662.59680054 -470.25344849 661.58416748 C-467.25355092 625.56960185 -467.25355092 625.56960185 -464.375 619.8125 C-463.43873871 608.5313189 -464.86943494 599.35783117 -471.5 590.0625 C-479.28256254 580.99927618 -490.14429908 576.17892191 -500.6875 571.0625 C-502.70987312 570.07270974 -504.73104541 569.08053981 -506.75126648 568.08636475 C-508.56943711 567.19288435 -510.39070592 566.30571656 -512.2121582 565.41894531 C-515.02233195 563.99162434 -517.67566894 562.43483187 -520.375 560.8125 C-522.64071972 559.64510699 -524.90990003 558.49826667 -527.1953125 557.37109375 C-528.53867658 556.7037369 -529.88201884 556.03633612 -531.2253418 555.36889648 C-532.27182388 554.8503157 -532.27182388 554.8503157 -533.33944702 554.32125854 C-543.67519195 549.19652651 -553.99751029 544.05605021 -564.17504883 538.62207031 C-569.00959085 536.04407864 -573.8743081 533.53073193 -578.7578125 531.046875 C-580.74300069 530.03350873 -582.72792138 529.01962004 -584.71279907 528.00564575 C-586.01332514 527.34333355 -587.31519711 526.68365653 -588.61849976 526.02682495 C-605.35334922 517.58994809 -605.35334922 517.58994809 -609.375 509.8125 C-611.37495906 499.91030859 -607.33540506 492.36290799 -602.625 483.9375 C-601.92768866 482.64622827 -601.23265322 481.35372515 -600.53979492 480.06005859 C-598.82141821 476.86531532 -597.07619392 473.68640725 -595.31756592 470.51367188 C-594.00727081 468.14881108 -592.70868202 465.77758922 -591.41015625 463.40625 C-590.04084978 460.90612827 -588.67049694 458.40671059 -587.29248047 455.91137695 C-581.20282729 444.81313933 -575.50258092 433.50885666 -569.75512695 422.23095703 C-564.4019015 411.73080098 -558.96088224 401.28116063 -553.45513916 390.86019897 C-551.07781499 386.35333129 -548.72759237 381.83230855 -546.375 377.3125 C-542.32320938 369.53702006 -538.25308579 361.77157885 -534.1640625 354.015625 C-530.88413682 347.79003359 -527.62713914 341.55264515 -524.375 335.3125 C-520.32765437 327.54652716 -516.26639658 319.78823697 -512.17724609 312.04418945 C-509.84143969 307.61590934 -507.5257325 303.17789529 -505.2265625 298.73046875 C-504.6903125 297.69535156 -504.1540625 296.66023438 -503.6015625 295.59375 C-502.55957642 293.58093786 -501.52036357 291.56668685 -500.484375 289.55078125 C-493.77754528 276.60841256 -493.77754528 276.60841256 -488.75 272.5 C-488.15960938 272.00886719 -487.56921875 271.51773437 -486.9609375 271.01171875 C-483.88252788 268.68395581 -481.11349292 268.22012692 -477.25390625 268.3046875 C-471.41017302 269.33546812 -466.31724527 272.5857048 -461.13769531 275.36083984 C-457.89368053 277.06540965 -454.61872705 278.70391433 -451.3359375 280.33203125 C-450.70853668 280.6432341 -450.08113586 280.95443695 -449.4347229 281.27507019 C-448.13660529 281.91871923 -446.83843767 282.56226743 -445.54022217 283.20571899 C-433.39302726 289.23583052 -421.33610805 295.42073114 -409.375 301.8125 C-399.10819785 307.2887414 -388.80426046 312.65609715 -378.37646484 317.81982422 C-375.63819357 319.1779373 -372.90461486 320.54534591 -370.17138672 321.91357422 C-368.82066853 322.58941675 -367.46944124 323.26424286 -366.11767578 323.93798828 C-363.02819601 325.47850652 -359.94808471 327.03239715 -356.87890625 328.61328125 C-355.82574219 329.15339844 -354.77257812 329.69351562 -353.6875 330.25 C-352.32044922 330.95962891 -352.32044922 330.95962891 -350.92578125 331.68359375 C-342.27127264 335.51384335 -331.82723188 334.56303769 -322.9765625 331.859375 C-318.65386207 330.11990996 -315.04693254 327.65088229 -311.375 324.8125 C-310.80910156 324.37550781 -310.24320313 323.93851563 -309.66015625 323.48828125 C-306.34023015 320.81037648 -303.35284598 317.85959821 -300.375 314.8125 C-294.89576577 309.22789588 -289.32313399 303.89236611 -283.375 298.8125 C-282.36907683 297.93180539 -281.36393081 297.05022269 -280.359375 296.16796875 C-269.97986114 287.09897659 -259.07502294 278.79291217 -248.01953125 270.5703125 C-229.68728244 257.59979861 -229.68728244 257.59979861 -220.375 237.8125 C-218.4495162 224.23620744 -222.84419946 212.66105921 -227.28027344 199.984375 C-228.97203719 195.08263668 -230.51338654 190.13575665 -232.0625 185.1875 C-233.98779794 179.10571269 -235.95598446 173.04289952 -238 167 C-239.70801724 161.92585786 -241.26908438 156.83072832 -242.75 151.6875 C-244.89564202 144.24217374 -247.30638977 136.90178437 -249.78198242 129.56030273 C-251.8240793 123.49648544 -253.78657587 117.41458303 -255.66088867 111.296875 C-256.90717853 107.24342322 -258.27263571 103.24723898 -259.6875 99.25 C-261.62743597 93.41442025 -262.09409396 89.22357976 -260.3125 83.25 C-255.5004742 74.71253487 -248.14118047 72.22742221 -239.125 69.4375 C-237.94711914 69.05883789 -236.76923828 68.68017578 -235.55566406 68.29003906 C-224.86310703 64.88283264 -214.09512107 61.72292751 -203.32421875 58.57421875 C-197.67907173 56.91614841 -192.10733136 55.11573553 -186.5390625 53.21484375 C-177.02244431 49.97978131 -167.42136568 46.98859456 -157.84863281 43.92480469 C-154.65620409 42.90254539 -151.46472684 41.87737173 -148.2734375 40.8515625 C-139.33505964 37.9852602 -130.38582294 35.19592275 -121.36816406 32.58935547 C-115.53477341 30.89111559 -109.78310184 28.9900136 -104.03515625 27.0234375 C-101.28312881 26.11294817 -98.53699707 25.25996976 -95.7578125 24.44140625 C-89.51165464 22.58509466 -83.35753694 20.46773059 -77.1875 18.375 C-68.68067225 15.50848754 -60.21486969 12.77378718 -51.48828125 10.6640625 C-48.48777524 9.84334693 -45.63556605 8.80065168 -42.73364258 7.68652344 C-37.73189626 5.83306605 -32.64578002 4.23776756 -27.5625 2.625 C-26.45068359 2.25697266 -25.33886719 1.88894531 -24.19335938 1.50976562 C-16.11511199 -1.03802568 -8.21155648 -2.88925135 0 0 Z " fill="#FEFEFE" transform="translate(876.375,252.1875)"/>
<path d="M0 0 C6.09741555 4.21012026 8.55995222 8.16864514 10.625 15.0625 C10.99890869 16.24416748 10.99890869 16.24416748 11.38037109 17.44970703 C12.14842813 19.89840764 12.89128052 22.35330867 13.625 24.8125 C13.9657959 25.95380371 13.9657959 25.95380371 14.31347656 27.11816406 C15.15446697 29.95077828 15.99318455 32.78363712 16.80078125 35.62597656 C19.14208837 43.82470273 21.96563086 51.8686835 24.703125 59.94140625 C29.74200173 74.83559748 34.36429294 89.81340768 38.77001953 104.90576172 C40.27937031 110.03720955 41.8587059 115.14382808 43.48828125 120.23828125 C44.28762325 122.75167619 45.05373167 125.26238537 45.79296875 127.79296875 C48.16345745 135.69202079 50.94747793 141.76527882 56.625 147.8125 C57.40875 148.72 58.1925 149.6275 59 150.5625 C69.00338117 159.13682671 78.91354724 160.06097344 91.625 160.25 C104.21525855 160.52815108 116.75585328 161.1655389 129.3125 162.125 C130.54702408 162.21908142 130.54702408 162.21908142 131.80648804 162.31506348 C142.75223834 163.16761281 153.57744561 164.38987513 164.4375 166 C182.74613219 168.66321069 196.39975265 170.3636281 212.07421875 159.04370117 C220.69479511 151.50317214 225.62966956 138.25001547 230.72079468 128.16049194 C232.79366093 124.05380538 234.88447077 119.95629327 236.9765625 115.859375 C237.3829747 115.06307175 237.7893869 114.26676849 238.20811462 113.44633484 C241.30142326 107.40311024 244.49983602 101.42614852 247.8125 95.5 C251.14908289 89.52796415 254.33393791 83.51792722 257.3581543 77.38208008 C262.42571099 67.12119879 267.71541418 56.97268256 273.03613281 46.84130859 C273.99900885 45.00580765 274.95785672 43.16817545 275.90917969 41.32666016 C283.34765515 26.9679904 283.34765515 26.9679904 290.625 23.8125 C299.98571305 22.08623102 307.08213969 25.85855275 315.125 30.1875 C316.36891732 30.83573428 317.61388686 31.48195311 318.85986328 32.1262207 C322.46204573 33.99621621 326.0437752 35.9026862 329.625 37.8125 C331.38202746 38.73717032 333.13974502 39.66053167 334.8984375 40.58203125 C337.18298056 41.78079917 339.46602029 42.98193811 341.74414062 44.19287109 C348.46817388 47.76373584 355.2712996 51.16827465 362.10107422 54.53198242 C367.94768448 57.42587918 373.72838169 60.43339568 379.49609375 63.48046875 C388.96777077 68.48403005 398.48820704 73.38849135 408.02612305 78.2644043 C410.71791001 79.64054674 413.40881949 81.0183935 416.09960938 82.39648438 C417.84890829 83.29176446 419.59825547 84.18695023 421.34765625 85.08203125 C422.13326431 85.48420364 422.91887238 85.88637604 423.72828674 86.30073547 C428.58113423 88.78086075 433.44845986 91.2301475 438.32763672 93.65808105 C442.09990351 95.5536351 445.83120697 97.52534175 449.5625 99.5 C450.37243408 99.92716309 451.18236816 100.35432617 452.0168457 100.79443359 C456.1852309 102.99306271 460.35087619 105.19683618 464.515625 107.40234375 C475.79659647 113.36890219 487.15635768 119.14867902 498.61328125 124.76953125 C505.59092595 128.20490131 512.50013167 131.7461339 519.3125 135.5 C519.97185547 135.85634521 520.63121094 136.21269043 521.31054688 136.57983398 C530.64790725 141.80494167 530.64790725 141.80494167 532.23168945 146.67993164 C533.89504123 155.69878809 531.89712949 161.45350913 527.25 169.1875 C526.13490427 171.1310277 525.02298284 173.0763797 523.9140625 175.0234375 C523.3562207 175.9937793 522.79837891 176.96412109 522.22363281 177.96386719 C519.86323381 182.169905 517.73804691 186.47836745 515.625 190.8125 C511.65570697 198.88018832 507.42578909 206.78013765 503.09472656 214.65869141 C496.42389175 226.79548714 489.95675017 239.03019891 483.8190918 251.44555664 C480.19078677 258.75414291 476.38113335 265.96857226 472.57275391 273.18457031 C472.07565918 274.13041992 471.57856445 275.07626953 471.06640625 276.05078125 C470.61982666 276.89680908 470.17324707 277.74283691 469.71313477 278.61450195 C465.76114901 286.59738905 466.51681075 297.87159767 468.42578125 306.3828125 C471.2865561 313.91323701 476.04764026 319.14046285 481.625 324.8125 C483.03568144 326.3412406 484.431142 327.88300146 485.82617188 329.42602539 C489.21141567 333.1682522 492.62211314 336.86468354 496.25 340.375 C499.93268298 343.98753664 503.08846469 347.99057663 506.31640625 352.0078125 C508.44539988 354.59430561 510.65552686 357.04883898 512.9375 359.5 C520.20619918 367.48799754 526.41710427 376.37801099 532.7421875 385.1171875 C540.92846664 396.3561532 548.55384451 406.04471113 562.625 409.5625 C571.01537841 410.2616982 577.56671085 409.29125945 585.625 406.8125 C587.12973137 406.36947052 588.63498278 405.92820525 590.140625 405.48828125 C599.30797912 402.79385903 608.39830079 399.92669696 617.44726562 396.85888672 C622.34195877 395.20939708 627.25591517 393.76157928 632.25390625 392.453125 C637.90697809 390.92577116 643.38701346 388.9052378 648.875 386.875 C653.77741932 385.08126748 658.72277174 383.51850116 663.71875 382.0078125 C667.68179379 380.80414335 671.62758135 379.54790109 675.57324219 378.28857422 C677.48709973 377.67813653 679.40182091 377.07040016 681.31738281 376.46533203 C685.60975424 375.10772088 689.89025458 373.73437779 694.140625 372.25 C702.76074268 369.2812669 712.2152489 366.08450993 721.06640625 369.8515625 C729.08752206 375.13988563 731.16428572 384.95615617 733.6875 393.75 C733.93048828 394.57951172 734.17347656 395.40902344 734.42382812 396.26367188 C735.41183391 399.6365192 736.39299144 403.01133358 737.37060547 406.38720703 C738.71212995 410.95292894 740.17345004 415.41943173 741.88378906 419.85986328 C743.18590427 423.29013911 744.34080656 426.76932849 745.5 430.25 C745.75974609 431.02859375 746.01949219 431.8071875 746.28710938 432.609375 C748.23602215 438.50852909 750.01278284 444.44577246 751.72998047 450.41577148 C753.23251978 455.59457146 754.89357824 460.70604059 756.625 465.8125 C758.5281757 471.42623972 760.31205111 477.04979567 761.9375 482.75 C764.11017321 490.34706537 766.60184391 497.8253701 769.125 505.3125 C771.75445178 513.11574258 774.29844433 520.90379138 776.53344727 528.82910156 C778.78976947 536.65451815 781.46040327 544.34717647 784.0625 552.0625 C787.48884397 562.22373849 790.76528384 572.38183672 793.61987305 582.72167969 C796.20877313 592.05882099 798.95762112 601.56425631 802.765625 610.484375 C804.67527101 615.65777963 804.42819436 621.02338553 802.9140625 626.28125 C799.28584419 633.39158387 792.45037742 635.57216661 785.33203125 638 C777.22190503 640.62003717 769.05661694 643.06848112 760.87939453 645.4699707 C753.36923576 647.67556661 745.91034197 649.97826325 738.5 652.5 C730.94633976 655.06949181 723.35176258 657.42988348 715.70043945 659.69091797 C709.80117049 661.44052873 703.97080234 663.34373761 698.1484375 665.3359375 C694.32387436 666.6132283 690.46651794 667.76524132 686.6015625 668.9140625 C684.65563218 669.49806239 682.70998288 670.08299124 680.76437378 670.6680603 C678.86344989 671.23480959 676.95825305 671.78716447 675.05297852 672.33911133 C663.35995307 675.85982011 652.19990829 680.84263714 645.8984375 691.8203125 C642.62316797 698.26219333 640.51639964 703.16017454 640.44921875 710.43359375 C640.42886065 711.83758064 640.40740147 713.24155188 640.38500977 714.64550781 C640.37382111 715.39401001 640.36263245 716.14251221 640.35110474 716.91369629 C640.09313855 732.52544266 639.11256851 748.01528011 637.6875 763.5625 C637.60204926 764.51720184 637.51659851 765.47190369 637.42855835 766.45553589 C637.18089486 769.19518961 636.92289449 771.93362954 636.66015625 774.671875 C636.54914078 775.88234245 636.54914078 775.88234245 636.43588257 777.11726379 C635.92795962 782.1836602 634.94149239 786.89337492 633.625 791.8125 C630.99179806 806.05129567 629.36483221 820.4615295 637.203125 833.421875 C643.01890992 841.22864936 649.93589781 846.34234683 658.5625 850.6875 C659.39442871 851.11603271 660.22635742 851.54456543 661.08349609 851.98608398 C666.9318856 854.9883316 672.81392957 857.92539898 678.70483398 860.84326172 C684.28309743 863.61397301 689.77969582 866.52737516 695.27441406 869.45947266 C699.98142631 871.96336256 704.72193023 874.38480778 709.5 876.75 C716.24478767 880.08887103 722.90352166 883.5761519 729.55371094 887.09912109 C734.5871524 889.75877931 739.64871782 892.34816108 744.75 894.875 C750.45546104 897.71511898 756.15055159 900.57394894 761.8125 903.5 C762.51971191 903.85650635 763.22692383 904.2130127 763.95556641 904.58032227 C769.37814469 907.40929457 773.1907675 910.66115125 776.625 915.8125 C779.04025375 925.73163372 773.54856671 933.47136846 768.82128906 941.69091797 C767.0923181 944.75719505 765.54366409 947.9000564 764 951.0625 C755.70945365 967.82090747 746.99192174 984.38054882 738.26220703 1000.91333008 C735.02942729 1007.03581633 731.82433795 1013.17247893 728.625 1019.3125 C725.01626525 1026.23784742 721.39500387 1033.15617689 717.75 1040.0625 C713.67128866 1047.79339077 709.64384424 1055.55034021 705.625 1063.3125 C701.21618539 1071.82786447 696.7882483 1080.3321348 692.3125 1088.8125 C689.06427009 1094.96927564 685.84214482 1101.13943151 682.625 1107.3125 C681.11026362 1110.21610711 679.59523316 1113.11956055 678.08007812 1116.02294922 C677.13535097 1117.83409897 676.1913009 1119.64560213 675.24804688 1121.45751953 C672.77446739 1126.20704716 670.28653202 1130.94825166 667.765625 1135.67285156 C667.01183495 1137.08685327 666.26176223 1138.50284361 665.515625 1139.92089844 C664.48413045 1141.87270289 663.43307658 1143.81250651 662.375 1145.75 C661.79234375 1146.83152344 661.2096875 1147.91304687 660.609375 1149.02734375 C657.6996519 1153.11126613 654.34862789 1155.23795737 649.625 1156.8125 C642.01798017 1157.70276593 636.79587491 1156.07361038 630.1875 1152.4375 C629.32987061 1151.98705322 628.47224121 1151.53660645 627.58862305 1151.07250977 C625.80507576 1150.13313894 624.02617275 1149.1848989 622.25195312 1148.22802734 C619.74583633 1146.87761237 617.22808221 1145.55306689 614.703125 1144.23828125 C608.52282194 1141.01585662 602.36984561 1137.74258544 596.21875 1134.46484375 C586.75896041 1129.4290674 577.2266316 1124.57141342 567.625 1119.8125 C556.01442058 1114.05078109 544.40994707 1108.28338168 532.9375 1102.25 C532.16623779 1101.84475098 531.39497559 1101.43950195 530.6003418 1101.02197266 C527.69241028 1099.48295961 524.85870882 1097.9657695 522.10546875 1096.16015625 C516.14575145 1092.92219961 509.83291216 1092.44708465 503.1875 1092.5 C502.44250244 1092.50563965 501.69750488 1092.5112793 500.92993164 1092.51708984 C489.51445406 1092.76902107 482.15094569 1097.09524812 474.25 1105.1875 C473.38375 1106.05375 472.5175 1106.92 471.625 1107.8125 C470.965 1107.8125 470.305 1107.8125 469.625 1107.8125 C469.36460938 1108.40933594 469.10421875 1109.00617188 468.8359375 1109.62109375 C467.53599639 1111.97356783 466.3132846 1113.17300785 464.25 1114.875 C461.21091561 1117.44146006 458.24731534 1120.06379286 455.33422852 1122.77294922 C449.29837128 1128.38369153 443.06090735 1133.6620715 436.625 1138.8125 C435.49416043 1139.73490375 434.36398485 1140.65812196 433.234375 1141.58203125 C425.67244834 1147.73566387 417.94643469 1153.58102124 409.96655273 1159.18457031 C400.07855683 1166.18599446 393.04250094 1172.73477051 388.25 1184.0625 C385.53522521 1200.35114872 391.00767599 1214.15987125 396 1229.5 C396.79332806 1231.95300883 397.58629576 1234.40613422 398.37890625 1236.859375 C398.76191895 1238.04337891 399.14493164 1239.22738281 399.53955078 1240.44726562 C401.02190839 1245.043041 402.48484089 1249.64476153 403.9375 1254.25 C404.29992798 1255.39819214 404.29992798 1255.39819214 404.66967773 1256.56958008 C405.99156063 1260.76842057 407.28527883 1264.97481673 408.5625 1269.1875 C410.29882573 1274.86673207 412.17443036 1280.49492793 414.0625 1286.125 C416.24894471 1292.65390996 418.42185922 1299.18568934 420.5 1305.75 C420.88929687 1306.97589844 421.27859375 1308.20179687 421.6796875 1309.46484375 C423.65007894 1316.44263493 425.4921155 1324.81153822 422.3125 1331.625 C415.32963855 1337.30872444 406.03220955 1339.8809699 397.625 1342.8125 C396.29797035 1343.28066442 394.97116222 1343.74945704 393.64453125 1344.21875 C390.72324456 1345.2516764 387.80135596 1346.28286871 384.87890625 1347.3125 C375.7276503 1350.53826144 366.59876846 1353.81669352 357.5 1357.1875 C348.37293513 1360.56550808 339.19534564 1363.78838457 330.00341797 1366.98486328 C326.35430504 1368.25467367 322.70730982 1369.53039108 319.0625 1370.8125 C318.02790649 1371.17637817 318.02790649 1371.17637817 316.97241211 1371.54760742 C312.59695404 1373.09437336 308.24332196 1374.69331675 303.89575195 1376.31665039 C294.7526232 1379.72917945 285.53797912 1382.85293124 276.26538086 1385.89526367 C270.63746108 1387.75793966 265.09966333 1389.72637744 259.625 1392 C253.30289035 1394.61702627 246.92825036 1396.68199143 240.37890625 1398.63671875 C236.39478478 1399.88460695 232.51798436 1401.30978393 228.625 1402.8125 C219.36069729 1406.35356645 210.08238386 1409.73151791 200.65283203 1412.80786133 C199.58137939 1413.15820435 199.58137939 1413.15820435 198.48828125 1413.515625 C197.47471558 1413.84639038 197.47471558 1413.84639038 196.44067383 1414.18383789 C194.47230145 1414.83838304 194.47230145 1414.83838304 192.03125 1415.94921875 C186.75090286 1417.84362901 181.11179947 1417.62994642 175.625 1416.8125 C168.33571347 1412.89258156 164.98008682 1406.1464808 162.25 1398.625 C160.71052046 1394.51509817 159.08711091 1390.58098252 157.0625 1386.6875 C154.85206367 1382.42500751 153.22754296 1378.1030932 151.6484375 1373.57421875 C150.64417722 1370.86424922 149.48966258 1368.29710817 148.25 1365.6875 C146.14413176 1361.16212357 144.43298177 1356.58838926 142.8125 1351.875 C139.70932379 1342.85268892 136.17791225 1334.02316742 132.58740234 1325.18554688 C130.48809662 1320.0091766 128.41264397 1314.82346987 126.37548828 1309.62231445 C125.01114516 1306.13967535 123.63118768 1302.66348899 122.25 1299.1875 C121.79367187 1298.011875 121.33734375 1296.83625 120.8671875 1295.625 C116.16504473 1283.86964307 109.7607414 1274.06270037 97.88043213 1268.68850708 C90.19733382 1265.7044011 82.03155852 1265.4833404 73.890625 1265.3203125 C71.61521501 1265.25720466 69.33982493 1265.19337585 67.06445312 1265.12890625 C65.88890869 1265.09812988 64.71336426 1265.06735352 63.50219727 1265.03564453 C43.6858934 1264.49945592 24.25960931 1263.57585439 4.69018555 1260.31884766 C-16.94256591 1256.0045614 -16.94256591 1256.0045614 -37.375 1261.8125 C-38.05820312 1262.24820312 -38.74140625 1262.68390625 -39.4453125 1263.1328125 C-50.61483266 1270.90475999 -55.78795512 1281.77697191 -61.6875 1293.625 C-62.5385097 1295.31200962 -63.39081123 1296.99836818 -64.24438477 1298.68408203 C-65.90125952 1301.95765983 -67.55357901 1305.23346297 -69.20214844 1308.51123047 C-71.68251337 1313.43340059 -74.22569041 1318.32047381 -76.8125 1323.1875 C-77.56014637 1324.59752344 -78.30754424 1326.00767866 -79.0546875 1327.41796875 C-79.42303711 1328.11325684 -79.79138672 1328.80854492 -80.17089844 1329.52490234 C-81.56511528 1332.17368819 -82.94347187 1334.83042244 -84.3203125 1337.48828125 C-89.14444908 1346.79582178 -94.00718755 1356.0537512 -99.21411133 1365.15332031 C-101.84218189 1369.7781473 -104.26767268 1374.48199708 -106.625 1379.25 C-106.95773926 1379.92063477 -107.29047852 1380.59126953 -107.63330078 1381.28222656 C-109.01484932 1384.06761791 -110.39529628 1386.85354611 -111.7734375 1389.640625 C-114.63473522 1395.14452253 -117.69051487 1398.97025743 -123.375 1401.8125 C-131.47988763 1402.75548398 -137.33370836 1402.06254793 -144.24121094 1397.69946289 C-147.60719506 1395.67268732 -151.06157442 1393.90732671 -154.5859375 1392.1796875 C-156.01673465 1391.47113884 -157.44713972 1390.76179802 -158.87719727 1390.05175781 C-159.98733688 1389.50074402 -159.98733688 1389.50074402 -161.11990356 1388.93859863 C-164.83928969 1387.08129641 -168.53932644 1385.18665396 -172.23828125 1383.2890625 C-172.99597305 1382.90045044 -173.75366486 1382.51183838 -174.53431702 1382.1114502 C-176.91907608 1380.88750903 -179.30331951 1379.66256778 -181.6875 1378.4375 C-183.38474185 1377.56603443 -185.08200794 1376.69461605 -186.77929688 1375.82324219 C-190.25758989 1374.03730057 -193.73558313 1372.25077688 -197.21337891 1370.46386719 C-201.39922337 1368.31333979 -205.58612598 1366.16488343 -209.77348328 1364.01730347 C-212.89996162 1362.41358992 -216.02589842 1360.80882294 -219.15170288 1359.20379639 C-220.60514415 1358.45769401 -222.05877011 1357.71195128 -223.51260376 1356.96661377 C-231.47694733 1352.88288073 -239.40732022 1348.74472595 -247.29669189 1344.51785278 C-251.53912873 1342.24812416 -255.80627434 1340.05777934 -260.125 1337.9375 C-266.09141458 1334.98700984 -271.99331264 1331.92824945 -277.875 1328.8125 C-285.55016404 1324.75138812 -293.27755931 1320.8165414 -301.05761719 1316.9609375 C-314.83111564 1310.13513296 -328.59563409 1303.3037371 -342.1484375 1296.046875 C-344.815548 1294.62103845 -347.49737874 1293.25598027 -350.2265625 1291.953125 C-357.32889143 1288.45807374 -362.35711345 1285.34603367 -365.375 1277.8125 C-367.0294531 1268.57459316 -363.54243476 1261.89580653 -359.125 1254 C-358.48117119 1252.80995249 -357.83943806 1251.61876903 -357.19970703 1250.42651367 C-355.28506018 1246.87332085 -353.33172491 1243.34269466 -351.375 1239.8125 C-350.31385671 1237.87828802 -349.25386984 1235.94344093 -348.1953125 1234.0078125 C-346.7256744 1231.32063279 -345.25503262 1228.63412891 -343.77636719 1225.9519043 C-339.59444559 1218.32967925 -335.7244481 1210.56873711 -331.87451172 1202.77490234 C-328.06432889 1195.09870529 -324.03079829 1187.56880867 -319.89477539 1180.06420898 C-316.12103336 1173.20867071 -312.43892607 1166.30959893 -308.8125 1159.375 C-308.31169922 1158.42165771 -307.81089844 1157.46831543 -307.29492188 1156.48608398 C-301.40692502 1145.18763185 -297.04054905 1134.87064865 -300.05859375 1121.8671875 C-303.51879309 1111.55837785 -310.1168579 1104.91857139 -317.71875 1097.4609375 C-320.43714526 1094.75053752 -322.95268044 1091.94577761 -325.44140625 1089.02734375 C-327.4737464 1086.69939048 -329.56842839 1084.44134238 -331.67797852 1082.18359375 C-337.51791949 1075.92917024 -343.03613667 1069.50399481 -348.375 1062.8125 C-349.29591185 1061.68280792 -350.21784111 1060.55394468 -351.140625 1059.42578125 C-357.30285003 1051.85265579 -363.15060128 1044.13179386 -368.65917969 1036.06616211 C-374.4212914 1027.83869239 -380.89419645 1022.24969854 -390.375 1018.8125 C-391.77685547 1018.27689453 -391.77685547 1018.27689453 -393.20703125 1017.73046875 C-396.73933563 1016.70692802 -399.76184248 1016.47681185 -403.4375 1016.4375 C-404.62472656 1016.40914062 -405.81195313 1016.38078125 -407.03515625 1016.3515625 C-413.05292903 1016.6938471 -418.69250164 1018.94834021 -424.375 1020.8125 C-426.56342963 1021.48464319 -428.75352789 1022.15137904 -430.9453125 1022.8125 C-432.02683594 1023.1425 -433.10835937 1023.4725 -434.22265625 1023.8125 C-436.41470026 1024.48134776 -438.60741507 1025.1480009 -440.80078125 1025.8125 C-446.93977119 1027.69013611 -452.98736895 1029.716676 -459.00732422 1031.94628906 C-461.77055118 1032.95721185 -464.55564069 1033.84649793 -467.375 1034.6875 C-471.99356867 1036.08292063 -476.59860792 1037.51274196 -481.19580078 1038.9765625 C-487.94287766 1041.12477753 -494.69748292 1043.22166539 -501.5 1045.1875 C-508.914069 1047.33614038 -516.27189924 1049.65178236 -523.625 1052 C-525.25139404 1052.51796143 -525.25139404 1052.51796143 -526.91064453 1053.04638672 C-527.93528809 1053.37525879 -528.95993164 1053.70413086 -530.015625 1054.04296875 C-531.38509277 1054.48225708 -531.38509277 1054.48225708 -532.78222656 1054.93041992 C-534.55895676 1055.53487625 -536.31728383 1056.19547175 -538.0559082 1056.90209961 C-542.09886389 1058.48923318 -546.10783351 1058.36730014 -550.375 1057.8125 C-558.56701609 1053.71649196 -561.55852851 1047.08392183 -564.375 1038.8125 C-565.35605646 1035.56120098 -566.30661318 1032.30381923 -567.23803711 1029.03808594 C-569.1028754 1022.56661568 -571.21885601 1016.19209643 -573.375 1009.8125 C-576.19607869 1001.44973531 -578.84974384 993.06721267 -581.2890625 984.5859375 C-582.33118426 980.96475182 -583.40286473 977.35487302 -584.5 973.75 C-584.93699219 972.30947266 -584.93699219 972.30947266 -585.3828125 970.83984375 C-586.1234503 968.58002368 -586.93944032 966.34464418 -587.79296875 964.125 C-589.68809924 959.12901541 -591.10743832 954.01292249 -592.5625 948.875 C-597.48353728 931.74353879 -602.96674166 914.78627942 -608.69921875 897.91015625 C-611.72176985 888.98437555 -614.56423973 880.01405596 -617.3125 871 C-620.01564635 862.13740403 -622.8246866 853.32324986 -625.78735352 844.54418945 C-628.88638426 835.34686482 -631.81198749 826.09543777 -634.72998047 816.83935547 C-635.26462966 815.15931852 -635.81747207 813.48508378 -636.375 811.8125 C-636.9385668 806.12264289 -636.70296433 801.64341597 -633.375 796.8125 C-627.89221222 790.63045813 -621.08159409 788.57958603 -613.375 786.1875 C-612.17125732 785.79997559 -610.96751465 785.41245117 -609.72729492 785.01318359 C-602.36985396 782.66931666 -594.99527361 780.47893977 -587.48828125 778.6640625 C-584.45724818 777.83499699 -581.58081683 776.76962524 -578.65014648 775.64257812 C-574.08319446 773.97634389 -569.40420134 772.64888709 -564.75 771.25 C-554.07916976 768.01239402 -543.50147038 764.54915799 -532.94207764 760.9697876 C-525.46981631 758.44033757 -518.01590964 756.0850704 -510.375 754.125 C-498.67495942 751.08480006 -486.43135543 746.19618565 -479.75 735.625 C-479.18023437 734.74457031 -478.61046875 733.86414063 -478.0234375 732.95703125 C-473.51757378 724.36172249 -472.99257432 716.81938622 -472.9375 707.1875 C-472.70767667 692.92810516 -471.71297188 678.76918105 -470.5 664.5625 C-470.418638 663.57965027 -470.337276 662.59680054 -470.25344849 661.58416748 C-467.25355092 625.56960185 -467.25355092 625.56960185 -464.375 619.8125 C-463.43873871 608.5313189 -464.86943494 599.35783117 -471.5 590.0625 C-479.28256254 580.99927618 -490.14429908 576.17892191 -500.6875 571.0625 C-502.70987312 570.07270974 -504.73104541 569.08053981 -506.75126648 568.08636475 C-508.56943711 567.19288435 -510.39070592 566.30571656 -512.2121582 565.41894531 C-515.02233195 563.99162434 -517.67566894 562.43483187 -520.375 560.8125 C-522.64071972 559.64510699 -524.90990003 558.49826667 -527.1953125 557.37109375 C-528.53867658 556.7037369 -529.88201884 556.03633612 -531.2253418 555.36889648 C-532.27182388 554.8503157 -532.27182388 554.8503157 -533.33944702 554.32125854 C-543.67519195 549.19652651 -553.99751029 544.05605021 -564.17504883 538.62207031 C-569.00959085 536.04407864 -573.8743081 533.53073193 -578.7578125 531.046875 C-580.74300069 530.03350873 -582.72792138 529.01962004 -584.71279907 528.00564575 C-586.01332514 527.34333355 -587.31519711 526.68365653 -588.61849976 526.02682495 C-605.35334922 517.58994809 -605.35334922 517.58994809 -609.375 509.8125 C-611.37495906 499.91030859 -607.33540506 492.36290799 -602.625 483.9375 C-601.92768866 482.64622827 -601.23265322 481.35372515 -600.53979492 480.06005859 C-598.82141821 476.86531532 -597.07619392 473.68640725 -595.31756592 470.51367188 C-594.00727081 468.14881108 -592.70868202 465.77758922 -591.41015625 463.40625 C-590.04084978 460.90612827 -588.67049694 458.40671059 -587.29248047 455.91137695 C-581.20282729 444.81313933 -575.50258092 433.50885666 -569.75512695 422.23095703 C-564.4019015 411.73080098 -558.96088224 401.28116063 -553.45513916 390.86019897 C-551.07781499 386.35333129 -548.72759237 381.83230855 -546.375 377.3125 C-542.32320938 369.53702006 -538.25308579 361.77157885 -534.1640625 354.015625 C-530.88413682 347.79003359 -527.62713914 341.55264515 -524.375 335.3125 C-520.32765437 327.54652716 -516.26639658 319.78823697 -512.17724609 312.04418945 C-509.84143969 307.61590934 -507.5257325 303.17789529 -505.2265625 298.73046875 C-504.6903125 297.69535156 -504.1540625 296.66023438 -503.6015625 295.59375 C-502.55957642 293.58093786 -501.52036357 291.56668685 -500.484375 289.55078125 C-493.77754528 276.60841256 -493.77754528 276.60841256 -488.75 272.5 C-488.15960938 272.00886719 -487.56921875 271.51773437 -486.9609375 271.01171875 C-483.88252788 268.68395581 -481.11349292 268.22012692 -477.25390625 268.3046875 C-471.41017302 269.33546812 -466.31724527 272.5857048 -461.13769531 275.36083984 C-457.89368053 277.06540965 -454.61872705 278.70391433 -451.3359375 280.33203125 C-450.70853668 280.6432341 -450.08113586 280.95443695 -449.4347229 281.27507019 C-448.13660529 281.91871923 -446.83843767 282.56226743 -445.54022217 283.20571899 C-433.39302726 289.23583052 -421.33610805 295.42073114 -409.375 301.8125 C-399.10819785 307.2887414 -388.80426046 312.65609715 -378.37646484 317.81982422 C-375.63819357 319.1779373 -372.90461486 320.54534591 -370.17138672 321.91357422 C-368.82066853 322.58941675 -367.46944124 323.26424286 -366.11767578 323.93798828 C-363.02819601 325.47850652 -359.94808471 327.03239715 -356.87890625 328.61328125 C-355.82574219 329.15339844 -354.77257812 329.69351562 -353.6875 330.25 C-352.32044922 330.95962891 -352.32044922 330.95962891 -350.92578125 331.68359375 C-342.27127264 335.51384335 -331.82723188 334.56303769 -322.9765625 331.859375 C-318.65386207 330.11990996 -315.04693254 327.65088229 -311.375 324.8125 C-310.80910156 324.37550781 -310.24320313 323.93851563 -309.66015625 323.48828125 C-306.34023015 320.81037648 -303.35284598 317.85959821 -300.375 314.8125 C-294.89576577 309.22789588 -289.32313399 303.89236611 -283.375 298.8125 C-282.36907683 297.93180539 -281.36393081 297.05022269 -280.359375 296.16796875 C-269.97986114 287.09897659 -259.07502294 278.79291217 -248.01953125 270.5703125 C-229.68728244 257.59979861 -229.68728244 257.59979861 -220.375 237.8125 C-218.4495162 224.23620744 -222.84419946 212.66105921 -227.28027344 199.984375 C-228.97203719 195.08263668 -230.51338654 190.13575665 -232.0625 185.1875 C-233.98779794 179.10571269 -235.95598446 173.04289952 -238 167 C-239.70801724 161.92585786 -241.26908438 156.83072832 -242.75 151.6875 C-244.89564202 144.24217374 -247.30638977 136.90178437 -249.78198242 129.56030273 C-251.8240793 123.49648544 -253.78657587 117.41458303 -255.66088867 111.296875 C-256.90717853 107.24342322 -258.27263571 103.24723898 -259.6875 99.25 C-261.62743597 93.41442025 -262.09409396 89.22357976 -260.3125 83.25 C-255.5004742 74.71253487 -248.14118047 72.22742221 -239.125 69.4375 C-237.94711914 69.05883789 -236.76923828 68.68017578 -235.55566406 68.29003906 C-224.86310703 64.88283264 -214.09512107 61.72292751 -203.32421875 58.57421875 C-197.67907173 56.91614841 -192.10733136 55.11573553 -186.5390625 53.21484375 C-177.02244431 49.97978131 -167.42136568 46.98859456 -157.84863281 43.92480469 C-154.65620409 42.90254539 -151.46472684 41.87737173 -148.2734375 40.8515625 C-139.33505964 37.9852602 -130.38582294 35.19592275 -121.36816406 32.58935547 C-115.53477341 30.89111559 -109.78310184 28.9900136 -104.03515625 27.0234375 C-101.28312881 26.11294817 -98.53699707 25.25996976 -95.7578125 24.44140625 C-89.51165464 22.58509466 -83.35753694 20.46773059 -77.1875 18.375 C-68.68067225 15.50848754 -60.21486969 12.77378718 -51.48828125 10.6640625 C-48.48777524 9.84334693 -45.63556605 8.80065168 -42.73364258 7.68652344 C-37.73189626 5.83306605 -32.64578002 4.23776756 -27.5625 2.625 C-26.45068359 2.25697266 -25.33886719 1.88894531 -24.19335938 1.50976562 C-16.11511199 -1.03802568 -8.21155648 -2.88925135 0 0 Z M41.24609375 226.703125 C39.75928856 226.81935211 39.75928856 226.81935211 38.2424469 226.93792725 C32.20736255 227.46058317 26.28546896 228.30440406 20.32362366 229.37738037 C17.7702687 229.78907722 15.26742419 230.02788832 12.6875 230.1875 C0.64639429 231.16759 -11.52595052 233.8988678 -23.19140625 236.9765625 C-25.73618508 237.6447621 -28.28268814 238.28055128 -30.83984375 238.8984375 C-46.48527269 242.69422049 -61.85046318 247.16107361 -77.0625 252.4375 C-77.86365234 252.7144873 -78.66480469 252.99147461 -79.49023438 253.27685547 C-83.22095223 254.59509447 -86.85985547 255.99920006 -90.45703125 257.6484375 C-93.88538833 259.21323229 -97.35899653 260.56267421 -100.90042114 261.8508606 C-109.97928956 265.15543892 -118.64501969 269.05414659 -127.3125 273.3125 C-128.37109726 273.82890549 -128.37109726 273.82890549 -129.45108032 274.35574341 C-148.03424845 283.43288123 -166.19245642 293.27435398 -183.375 304.8125 C-184.77878906 305.71935547 -184.77878906 305.71935547 -186.2109375 306.64453125 C-204.43673128 318.50378063 -221.97511885 331.87678865 -237.96875 346.6171875 C-239.26484357 347.79966248 -240.5679973 348.97547686 -241.90844727 350.10742188 C-248.7202448 355.89346225 -254.98656012 362.23798605 -261.30151367 368.55371094 C-263.29911952 370.54913414 -265.30459353 372.53641056 -267.31054688 374.5234375 C-274.47027678 381.65206784 -281.11145196 388.87718057 -287.375 396.8125 C-288.41634026 398.03544605 -289.46610066 399.25131583 -290.52734375 400.45703125 C-296.87857393 407.67529704 -302.68322751 415.09117634 -308.13183594 423.01171875 C-309.3796919 424.81929643 -310.64500907 426.61350632 -311.9140625 428.40625 C-325.48977201 447.70324175 -337.49557887 467.88759612 -348.375 488.8125 C-349.13369385 490.26414551 -349.13369385 490.26414551 -349.90771484 491.74511719 C-355.29110737 502.09418021 -360.29169042 512.3859925 -364.15625 523.40234375 C-365.42241804 526.94517932 -366.87467318 530.36289946 -368.375 533.8125 C-370.17329328 538.20513105 -371.93356715 542.61198845 -373.67138672 547.02880859 C-374.25470223 548.50753974 -374.8469072 549.9827607 -375.44140625 551.45703125 C-378.29151908 558.83870424 -380.25674033 566.4665054 -382.26953125 574.10961914 C-382.51316406 575.0299292 -382.75679687 575.95023926 -383.0078125 576.8984375 C-383.22324707 577.7239209 -383.43868164 578.5494043 -383.66064453 579.39990234 C-384.375 581.8125 -384.375 581.8125 -385.35693359 584.19604492 C-387.29358126 589.17327586 -388.24139465 594.46281263 -389.40673828 599.6652832 C-389.86693366 601.71408837 -390.33727162 603.76037063 -390.80859375 605.80664062 C-392.76988321 614.43104449 -394.26585653 623.03112996 -395.375 631.8125 C-395.50712891 632.83045654 -395.63925781 633.84841309 -395.77539062 634.8972168 C-396.15100147 637.82625904 -396.51505202 640.75649498 -396.875 643.6875 C-397.11455891 645.62239886 -397.35414276 647.55729463 -397.59375 649.4921875 C-397.71548584 650.51401123 -397.83722168 651.53583496 -397.96264648 652.58862305 C-398.23859446 654.74604936 -398.55097472 656.89911312 -398.89868164 659.04614258 C-401.08633579 673.51930029 -400.81226724 688.14652502 -400.8125 702.75 C-400.81408804 703.82600904 -400.81408804 703.82600904 -400.81570816 704.92375565 C-400.84894048 728.76497162 -399.66637351 752.11588741 -395.73178101 775.67080688 C-395.35611416 777.92586837 -394.99340668 780.18278457 -394.63208008 782.44018555 C-393.20795112 791.26110239 -391.63292072 800.02658913 -389.6875 808.75 C-389.43476318 809.88332764 -389.18202637 811.01665527 -388.92163086 812.18432617 C-386.00413878 824.9074679 -382.25522867 837.35552322 -378.375 849.8125 C-377.74467567 851.86715192 -377.11446397 853.92183839 -376.484375 855.9765625 C-373.86326163 864.44537064 -371.23017976 872.8473651 -367.62988281 880.9621582 C-366.39291454 883.7718089 -365.21222726 886.59907735 -364.04296875 889.4375 C-356.54336222 907.46805734 -348.06162477 924.85864412 -338.375 941.8125 C-337.84084473 942.74900391 -337.30668945 943.68550781 -336.75634766 944.65039062 C-329.81451585 956.75579004 -322.50117874 968.46859505 -314.375 979.8125 C-313.7253125 980.73417969 -313.075625 981.65585938 -312.40625 982.60546875 C-302.44590069 996.55417827 -291.75150267 1009.99528771 -280.375 1022.8125 C-279.10269531 1024.25302734 -279.10269531 1024.25302734 -277.8046875 1025.72265625 C-271.37790433 1032.83333909 -264.65640965 1039.65731477 -257.90466309 1046.45806885 C-256.86040045 1047.51037782 -255.81762206 1048.56416221 -254.77648926 1049.61956787 C-248.72178205 1055.74843533 -242.55609534 1061.4819272 -235.8112793 1066.86425781 C-233.78370264 1068.48566895 -231.81426552 1070.13900777 -229.87109375 1071.859375 C-220.83678345 1079.85565765 -211.24203017 1086.88280524 -201.375 1093.8125 C-200.25223014 1094.61145381 -199.12979839 1095.41088312 -198.0078125 1096.2109375 C-177.2650872 1110.83112811 -155.27075442 1123.45734017 -132.625 1134.875 C-131.56659912 1135.41116943 -130.50819824 1135.94733887 -129.41772461 1136.49975586 C-123.62914407 1139.37643567 -117.85584936 1141.8665793 -111.73510742 1143.95092773 C-109.52245231 1144.75867159 -107.51073288 1145.70052694 -105.4375 1146.8125 C-101.23120382 1149.0190816 -96.82653368 1150.36800922 -92.3125 1151.8125 C-89.75569521 1152.68290163 -87.37773393 1153.66415462 -84.9375 1154.8125 C-80.2065258 1157.01335613 -75.29804924 1158.4357044 -70.29296875 1159.8828125 C-67.79542106 1160.67855059 -65.70495835 1161.64752083 -63.375 1162.8125 C-61.74067556 1163.27224135 -60.09239158 1163.68340589 -58.4375 1164.0625 C-54.53314567 1164.99502371 -50.67379178 1166.00347247 -46.83203125 1167.1640625 C-20.92609482 1174.96641091 5.84984937 1179.05687585 32.75146484 1181.50927734 C34.93294352 1181.73947246 37.10987654 1182.01324469 39.28369141 1182.30712891 C50.75799052 1183.8519743 62.05680973 1184.12961975 73.625 1184.0625 C74.57877533 1184.05939819 75.53255066 1184.05629639 76.51522827 1184.05310059 C100.25294482 1183.96318967 123.94126986 1183.49724483 147.2890625 1178.8125 C151.37331353 1177.99737162 155.44748701 1177.44815344 159.58203125 1176.94921875 C168.75404687 1175.76145081 177.68891102 1173.73272846 186.6875 1171.625 C187.96868713 1171.328284 187.96868713 1171.328284 189.27575684 1171.02557373 C201.8279972 1168.11045519 214.11379647 1164.76790794 226.30224609 1160.56396484 C229.85302584 1159.41520512 233.45621166 1158.47876429 237.06787109 1157.54199219 C240.47704445 1156.56943061 243.70216137 1155.26898746 246.97265625 1153.91015625 C249.94274181 1152.68100449 252.93572314 1151.52454 255.9375 1150.375 C257.0409375 1149.94960937 258.144375 1149.52421875 259.28125 1149.0859375 C261.44203138 1148.2630231 263.60843797 1147.4546649 265.78125 1146.6640625 C273.94352936 1143.65371689 281.61749176 1139.93511807 289.34082031 1135.96777344 C291.7422012 1134.75322295 294.16079889 1133.58040756 296.5859375 1132.4140625 C331.56029407 1115.48931362 363.85464936 1093.71609906 393.625 1068.8125 C394.2530957 1068.28881836 394.88119141 1067.76513672 395.52832031 1067.22558594 C402.17177126 1061.6693077 408.58476284 1056.03039119 414.625 1049.8125 C416.51041055 1047.92708945 418.45811362 1046.21254987 420.5 1044.5 C425.49482133 1040.20742088 429.80299451 1035.2890805 434.19287109 1030.39746094 C435.60146644 1028.83854498 437.02556711 1027.29573282 438.45703125 1025.7578125 C468.77448803 993.15862378 492.63766928 955.43632069 512.93359375 915.984375 C515.05822168 911.86048061 517.27945057 907.8036798 519.58032227 903.77563477 C520.91599693 901.26566516 521.87849277 898.70074526 522.8203125 896.0234375 C523.79303799 893.35080339 524.89293923 890.74481461 526 888.125 C528.68028411 881.73914239 531.1761375 875.29013629 533.625 868.8125 C534.08777344 867.60335937 534.55054688 866.39421875 535.02734375 865.1484375 C537.00214818 859.87224247 538.78015576 854.53113778 540.5625 849.1875 C540.89701172 848.19621094 541.23152344 847.20492187 541.57617188 846.18359375 C545.89238978 833.25988926 549.3384304 820.25217962 552.17993164 806.93701172 C552.68426994 804.5776109 553.19805053 802.22041003 553.71289062 799.86328125 C563.92580334 752.68682324 567.25467219 703.85067874 561.625 655.8125 C561.39223061 653.62119959 561.16050629 651.42978798 560.9296875 649.23828125 C559.89016205 639.70363452 558.7804561 630.3277321 556.37109375 621.02734375 C555.40867547 616.88037914 554.80793134 612.70953513 554.1875 608.5 C552.86452517 599.76922516 550.9919474 591.31934164 548.625 582.8125 C548.38797363 581.95092285 548.15094727 581.0893457 547.90673828 580.20166016 C544.62230992 568.34844068 540.99456417 556.63346813 537 545 C536.64010986 543.94570801 536.28021973 542.89141602 535.90942383 541.80517578 C533.8555567 535.92243696 531.52876622 530.2800317 528.88891602 524.63793945 C527.55242386 521.65025862 526.39562407 518.62962348 525.25390625 515.5625 C522.43062083 508.10999436 519.05276952 500.96766878 515.5625 493.8125 C515.07053635 492.80003708 515.07053635 492.80003708 514.56863403 491.76712036 C508.74873942 479.81654042 502.55153835 468.16463224 495.625 456.8125 C494.80781494 455.47034424 494.80781494 455.47034424 493.97412109 454.10107422 C485.84091808 440.83794675 477.08065273 428.16396423 467.625 415.8125 C467.13402832 415.16845215 466.64305664 414.5244043 466.13720703 413.86083984 C459.28531601 404.90394951 452.06988109 396.28108424 444.625 387.8125 C443.83480469 386.90886719 443.04460938 386.00523437 442.23046875 385.07421875 C435.71839554 377.80468307 428.82604123 370.90945469 421.9375 364 C421.43995209 363.49977325 420.94240417 362.99954651 420.42977905 362.48416138 C414.67526317 356.70617945 408.84094773 351.09482039 402.625 345.8125 C401.54167612 344.86345266 400.45959487 343.91298455 399.37890625 342.9609375 C381.05589506 326.97782243 361.28130253 312.63000054 340.625 299.8125 C340.06200195 299.46155273 339.49900391 299.11060547 338.91894531 298.74902344 C313.48172283 282.96785708 286.67550679 269.72389311 258.85742188 258.70849609 C256.06831803 257.58907231 253.31682257 256.38959841 250.5625 255.1875 C226.66746667 245.21691055 200.9316709 238.99847857 175.54101562 234.26635742 C173.625 233.8125 173.625 233.8125 172.625 232.8125 C170.44726098 232.45350302 168.25997854 232.15210769 166.0703125 231.875 C165.41296112 231.79000244 164.75560974 231.70500488 164.07833862 231.61743164 C161.96938673 231.34508696 159.85978325 231.07832213 157.75 230.8125 C155.6474201 230.54625331 153.54503492 230.27874356 151.44308472 230.00756836 C149.53033718 229.76096204 147.61698701 229.51904358 145.70361328 229.27734375 C142.625 228.8125 142.625 228.8125 139.625 227.8125 C120.14011064 225.43691291 100.2777171 225.59861116 80.6875 225.5625 C79.58303528 225.55741425 78.47857056 225.55232849 77.34063721 225.54708862 C65.27114647 225.50243654 53.28218837 225.75937465 41.24609375 226.703125 Z " fill="#000000" transform="translate(876.375,252.1875)"/>
<path d="M0 0 C5.07286072 1.63363311 10.05675788 3.38855395 15.01953125 5.33203125 C32.96024061 12.25720323 51.1681044 18.07297901 70 22 C70.82298584 22.1760376 71.64597168 22.3520752 72.49389648 22.53344727 C77.95908192 23.67296972 83.38651816 24.48583974 88.9375 25.0625 C96.61211832 25.87070611 96.61211832 25.87070611 100 27 C114.12398778 29.13298225 128.21534812 29.28237983 142.47314453 29.20581055 C146.02253325 29.18738301 149.57166178 29.18530286 153.12109375 29.18554688 C155.41406473 29.18063548 157.70703397 29.17480882 160 29.16796875 C161.56439819 29.16629951 161.56439819 29.16629951 163.16040039 29.16459656 C169.02056685 29.12717 174.78212567 28.83026221 180.61164856 28.22238159 C183.98729303 27.90807224 187.2972833 27.9039335 190.6875 27.9375 C192.48767578 27.95103516 192.48767578 27.95103516 194.32421875 27.96484375 C195.20722656 27.97644531 196.09023437 27.98804688 197 28 C199.22165606 32.89528226 200.84222808 37.73020628 202.1875 42.9375 C211.02237681 75.64921536 224.50841594 124.67296847 256.05078125 142.9375 C256.69402344 143.288125 257.33726562 143.63875 258 144 C259.051875 144.5775 260.10375 145.155 261.1875 145.75 C266.43942843 147.92194236 272.39756912 147.75568347 278 148 C279.00709199 163.41969735 275.6212757 177.7390026 271.45703125 192.51171875 C269.95290274 197.95988813 268.92684105 203.42824441 268 209 C267.66697247 210.94145873 267.33363493 212.88286431 267 214.82421875 C266.49718761 217.768421 265.99574153 220.71280127 265.5 223.65820312 C262.59980178 240.57224975 262.59980178 240.57224975 257 245 C253.98714813 246.58571151 251.92422333 247.00541262 248.5 247.25 C244.8365801 248.03501855 243.26437782 248.92475185 241.05078125 251.953125 C239.29214761 255.37886487 238.56542698 258.9893023 237.73046875 262.73046875 C235.2894785 273.65618447 231.17720378 283.11108664 226 293 C225.03997987 294.99919087 224.08157716 296.99915945 223.125 299 C205.13058649 334.89336594 175.27790643 360.57638927 137.24609375 373.2734375 C136.50488281 373.51320313 135.76367188 373.75296875 135 374 C133.96552734 374.39058594 133.96552734 374.39058594 132.91015625 374.7890625 C125.51842207 377.51450639 117.73647268 378.66916636 110 380 C109.10112061 380.17490967 108.20224121 380.34981934 107.27612305 380.5300293 C103.44316048 381.07988047 99.67553784 381.1621155 95.8125 381.16796875 C95.03293945 381.17129715 94.25337891 381.17462555 93.45019531 381.17805481 C91.80290309 381.18309985 90.15560072 381.18546389 88.50830078 381.18530273 C86.03530127 381.18746908 83.56276333 381.20559452 81.08984375 381.22460938 C71.52755913 381.25895791 62.42937487 380.73615979 53 379 C52.25991699 378.86456787 51.51983398 378.72913574 50.75732422 378.58959961 C14.92733422 371.39670361 -18.55873596 351.42011767 -39 321 C-39.86044922 319.73929688 -39.86044922 319.73929688 -40.73828125 318.453125 C-45.43370783 311.11256592 -48.73158523 302.99686673 -52.14404297 295.00439453 C-52.82754274 293.40384315 -53.52308486 291.80843608 -54.22265625 290.21484375 C-58.90296133 279.16780788 -62.13543165 267.43008996 -63.640625 255.5390625 C-63.93870704 252.88361725 -63.93870704 252.88361725 -65 250 C-69.446172 247.74907572 -74.30781944 247.03489577 -79.16015625 246.07421875 C-82.80097961 244.69701597 -83.98877902 243.31714953 -86 240 C-86.94140625 236.609375 -86.94140625 236.609375 -87.5625 232.75 C-87.67907959 232.0605127 -87.79565918 231.37102539 -87.91577148 230.66064453 C-88.16234813 229.19765605 -88.40252126 227.73357581 -88.63671875 226.26855469 C-89.12686398 223.20778219 -89.64768454 220.15276839 -90.17749023 217.09863281 C-90.42767662 215.65367555 -90.67229746 214.20773967 -90.91040039 212.76074219 C-91.60521664 208.67777079 -92.65639788 204.91064682 -94 201 C-94.30647199 199.46502061 -94.57701686 197.92246066 -94.8125 196.375 C-95.90936297 189.93535289 -97.55714398 183.65356332 -99.2355957 177.34521484 C-101.3606124 169.15966666 -102.17931849 161.193322 -102.1875 152.75 C-102.19974609 152.069375 -102.21199219 151.38875 -102.22460938 150.6875 C-102.23628249 146.67194795 -101.77158781 143.61319885 -100 140 C-98.87851562 140.01740234 -98.87851562 140.01740234 -97.734375 140.03515625 C-96.74953125 140.04417969 -95.7646875 140.05320312 -94.75 140.0625 C-93.77546875 140.07410156 -92.8009375 140.08570313 -91.796875 140.09765625 C-88.28150536 140.0362149 -88.28150536 140.0362149 -85 139 C-84.29459885 137.34935424 -83.63329371 135.6796313 -83 134 C-82.29521762 132.55818702 -81.57293586 131.1248331 -80.8359375 129.69921875 C-77.20420113 122.50891287 -73.93719992 115.15365724 -70.625 107.8125 C-69.34752467 104.98514651 -68.06876119 102.15837908 -66.7890625 99.33203125 C-66.47547287 98.6389537 -66.16188324 97.94587616 -65.83879089 97.23179626 C-63.13135751 91.26084412 -60.35731908 85.3224633 -57.56225586 79.39208984 C-56.46134791 77.00171401 -55.40019872 74.61508993 -54.37670898 72.19238281 C-50.65997753 63.46389592 -45.83509005 58.7467323 -38.625 52.984375 C-22.59211749 40.09352984 -6.97762158 19.38647292 0 0 Z " fill="#000000" transform="translate(867,737)"/>
<path d="M0 0 C1.31092713 0.65044086 2.61394925 1.3172025 3.90625 2.00390625 C6.26446701 3.18709472 8.66923196 4.22014665 11.09814453 5.24853516 C15.3160597 7.0619097 19.48602997 8.98370955 23.6640625 10.88671875 C24.64528076 11.33354004 25.62649902 11.78036133 26.63745117 12.24072266 C36.48925848 16.73299807 46.3269046 21.24305398 56.04296875 26.0234375 C81.00460459 38.27117681 81.00460459 38.27117681 108.1640625 43.13671875 C109.54924072 43.21043701 109.54924072 43.21043701 110.96240234 43.28564453 C130.86998215 44.1819193 148.51948054 41.95996504 166.13574219 32.21582031 C170.39898386 29.94770185 174.79768026 27.94677587 179.1640625 25.88671875 C186.91682916 22.20129964 194.62099448 18.432573 202.2890625 14.57421875 C204.99607881 13.22083248 207.70377419 11.86881338 210.41162109 10.51708984 C212.29500569 9.5725576 214.17541238 8.62207037 216.05322266 7.66650391 C218.89461821 6.22317217 221.74666024 4.80310631 224.6015625 3.38671875 C225.45959473 2.94384521 226.31762695 2.50097168 227.20166016 2.04467773 C234.7815125 -1.66997682 239.74893766 -0.47130077 247.6640625 2.07421875 C249.35982422 2.60982422 249.35982422 2.60982422 251.08984375 3.15625 C252.10433594 3.47980469 253.11882812 3.80335937 254.1640625 4.13671875 C257.96481695 5.29627096 261.72236934 6.27352096 265.6171875 7.0390625 C269.41723621 7.79057627 273.21538538 8.5502322 277.01171875 9.3203125 C287.8024421 11.50033491 298.58890554 13.63284418 309.4453125 15.4609375 C312.1771107 15.95736722 314.85223382 16.51025159 317.5546875 17.1328125 C322.14740034 18.17212858 326.75255556 18.86322683 331.4140625 19.51171875 C342.06569332 21.05243868 352.60875961 23.04526555 363.1640625 25.13671875 C364.49346226 25.39727484 365.82288712 25.65770296 367.15234375 25.91796875 C376.38864483 27.74340312 385.60787782 29.65048159 394.81054688 31.63818359 C397.05488179 32.11359147 399.30334541 32.55918844 401.5546875 33 C420.67675167 36.8984818 437.08129077 45.75069337 450.1875 60.34765625 C451.1640625 62.13671875 451.1640625 62.13671875 450.9050293 64.0480957 C450.05660915 66.43960621 449.08787681 67.57279544 447.28515625 69.34375 C446.69766602 69.92680908 446.11017578 70.50986816 445.50488281 71.1105957 C444.87678711 71.71734131 444.24869141 72.32408691 443.6015625 72.94921875 C442.96186523 73.57723389 442.32216797 74.20524902 441.66308594 74.85229492 C437.90211371 78.52215278 434.08933715 82.10717767 430.078125 85.50390625 C427.76647868 87.47588209 425.53260508 89.52516283 423.2890625 91.57421875 C418.40398794 95.97599065 413.3462337 100.09172503 408.1640625 104.13671875 C407.25785156 104.86117188 406.35164063 105.585625 405.41796875 106.33203125 C371.05516677 133.41117039 332.60464007 154.68382764 292.1640625 171.13671875 C291.26300781 171.51054688 290.36195313 171.884375 289.43359375 172.26953125 C287.02179165 173.25749837 284.59677186 174.20132979 282.1640625 175.13671875 C281.55288574 175.37712891 280.94170898 175.61753906 280.31201172 175.86523438 C262.21779616 182.95238214 243.54843062 188.10159779 224.58984375 192.3125 C221.23072238 193.06408747 221.23072238 193.06408747 218.30957031 194.11425781 C215.33882602 195.07991111 212.47816702 195.74897833 209.41015625 196.3203125 C207.77481934 196.62618286 207.77481934 196.62618286 206.10644531 196.93823242 C204.94983398 197.14810791 203.79322266 197.3579834 202.6015625 197.57421875 C201.39209961 197.79376221 200.18263672 198.01330566 198.93652344 198.23950195 C195.34750934 198.88276663 191.75661417 199.51353675 188.1640625 200.13671875 C186.7711499 200.37938477 186.7711499 200.37938477 185.35009766 200.62695312 C134.39195384 209.28151588 77.74260312 207.93984491 27.41015625 196.11328125 C22.07137945 194.86213934 16.68991342 193.85552475 11.30078125 192.84765625 C8.1640625 192.13671875 8.1640625 192.13671875 5.67578125 191.140625 C2.58959274 189.90710953 -0.45065843 189.353308 -3.7109375 188.69921875 C-12.59440561 186.75637269 -21.10017241 183.7513365 -29.6484375 180.69921875 C-30.30898132 180.46437775 -30.96952515 180.22953674 -31.65008545 179.98757935 C-42.2807599 176.1956656 -52.83521321 172.26120092 -62.87890625 167.0859375 C-64.97641663 166.06858216 -67.09790028 165.22402635 -69.2734375 164.38671875 C-110.9085632 147.92191904 -150.6301545 120.96427101 -183.8359375 91.13671875 C-184.38685059 90.64220215 -184.93776367 90.14768555 -185.50537109 89.63818359 C-192.45081111 83.3726042 -199.15437116 76.90892208 -205.69140625 70.21875 C-207.65776072 68.09990458 -207.65776072 68.09990458 -209.8359375 67.13671875 C-208.27977654 63.31705095 -205.79173462 60.89639663 -202.8359375 58.13671875 C-202.16820312 57.46382812 -201.50046875 56.7909375 -200.8125 56.09765625 C-187.88474883 43.59939848 -171.22426933 37.43133188 -153.671875 34.6640625 C-150.18478523 34.01563672 -146.81641222 33.08307483 -143.3984375 32.13671875 C-137.76024717 30.58492325 -132.21338833 29.42381984 -126.421875 28.62890625 C-123.82467436 28.22334816 -123.82467436 28.22334816 -121.4765625 27.171875 C-118.12957363 25.85981575 -114.73875738 25.29170289 -111.2109375 24.69921875 C-106.65677393 23.93415549 -102.22885592 23.00300993 -97.78125 21.75 C-91.38428129 19.96090481 -84.90800177 18.58402372 -78.41363525 17.20394897 C-67.76914282 14.93830843 -57.17726121 12.5703827 -46.67651367 9.69970703 C-43.01512345 8.7000415 -39.3849161 7.80329185 -35.6484375 7.13671875 C-26.98228386 5.53751641 -18.27899254 2.60959436 -10.1484375 -0.73828125 C-5.89371842 -2.18328018 -3.98974828 -1.87603057 0 0 Z " fill="#000000" transform="translate(836.8359375,1207.86328125)"/>
<path d="M0 0 C1.07185547 0.19787109 2.14371094 0.39574219 3.24804688 0.59960938 C14.17577604 2.67755911 24.87619353 5.30110218 35.4296875 8.8203125 C38.84935686 9.95022513 42.28787854 10.9471532 45.75 11.9375 C51.20287255 13.60177624 56.11857751 15.86437144 61.1484375 18.53515625 C63.20659466 19.59242876 65.31241216 20.55863174 67.44140625 21.46484375 C79.25369708 26.560596 89.18303608 33.81973055 99 42 C99.79535156 42.65226563 100.59070312 43.30453125 101.41015625 43.9765625 C106.10179653 47.93598147 110.06181337 52.30322824 114 57 C114.7734375 57.87398437 115.546875 58.74796875 116.34375 59.6484375 C145.09679287 92.74993438 153.40560024 133.76368395 150.6171875 176.58203125 C149.87001709 186.4988796 148.75098901 196.35209773 147.43359375 206.20703125 C146.88002902 211.04947588 146.63358784 215.88329859 146.39648438 220.74951172 C146.03446163 227.57237021 145.10091868 234.25553704 144 241 C128.30927835 234.33585081 120.08213229 210.54730052 114 196 C113.62359375 195.12214844 113.2471875 194.24429688 112.859375 193.33984375 C111.84861201 190.91144284 110.91540217 188.46612076 110 186 C109.63938477 185.0404541 109.63938477 185.0404541 109.27148438 184.06152344 C104.96791763 172.52200735 101.468884 160.908545 98.57299805 148.93359375 C96.24253249 139.69996902 93.02822155 132.45919065 85 127 C79.93562556 125.22962794 75.5364397 124.75475875 70.1875 124.8125 C68.88167969 124.81894531 67.57585937 124.82539062 66.23046875 124.83203125 C63.2758363 124.90914013 60.38245813 125.16013974 57.4465332 125.49560547 C51.83501941 126.06823644 46.26258043 126.19560801 40.625 126.23828125 C39.55418182 126.24798447 38.48336365 126.25768768 37.38009644 126.26768494 C33.92002584 126.29256371 30.4601511 126.30521057 27 126.3125 C25.22789154 126.31642761 25.22789154 126.31642761 23.41998291 126.32043457 C-8.58070234 126.32802371 -39.02175416 122.60993819 -69.77832031 113.64550781 C-72.03421358 112.99005926 -74.29396792 112.34952053 -76.5546875 111.7109375 C-78.03663873 111.28708857 -79.51841617 110.86263142 -81 110.4375 C-81.65758301 110.25195557 -82.31516602 110.06641113 -82.99267578 109.87524414 C-92.25814664 107.17562603 -101.07790612 103.16384984 -109.9375 99.375 C-110.86884766 98.98054687 -111.80019531 98.58609375 -112.75976562 98.1796875 C-113.65244141 97.798125 -114.54511719 97.4165625 -115.46484375 97.0234375 C-116.265271 96.68231934 -117.06569824 96.34120117 -117.89038086 95.98974609 C-120 95 -120 95 -123 93 C-128.46712896 92.5591025 -131.53354629 92.51982944 -136 96 C-137.43016897 98.40396289 -138.60767532 100.65597572 -139.75 103.1875 C-140.44082599 104.635638 -141.13493923 106.0822116 -141.83203125 107.52734375 C-142.1873291 108.26839355 -142.54262695 109.00944336 -142.90869141 109.77294922 C-152.02235345 128.3713441 -164.2966934 144.86803182 -179.953125 158.50390625 C-189.10243727 166.4825232 -194.3636126 173.78332318 -199 185 C-199.72603041 186.62640366 -200.45457726 188.25169064 -201.1875 189.875 C-201.47496094 190.54144531 -201.76242187 191.20789063 -202.05859375 191.89453125 C-203.89393225 195.99929247 -205.9595047 199.99427357 -208 204 C-210.39881754 200.12260096 -210.85681008 195.86511101 -211.5 191.4375 C-211.62890625 190.56762451 -211.7578125 189.69774902 -211.890625 188.80151367 C-213.07264603 180.34784705 -213.66878148 171.87270353 -214.22607422 163.35864258 C-214.75324414 155.56562447 -215.59805368 147.86650278 -216.625 140.125 C-217.6388941 132.25445323 -218.28823933 124.50144737 -218.3125 116.5625 C-218.31781738 115.74088379 -218.32313477 114.91926758 -218.32861328 114.07275391 C-218.13072177 97.14087807 -210.95087921 83.3674667 -199.39208984 71.35546875 C-195.94132431 67.99548098 -192.13025091 65.44089479 -188 63 C-186.74123047 62.20335937 -186.74123047 62.20335937 -185.45703125 61.390625 C-178.9668361 57.51759865 -172.69455137 55.65746951 -165.3828125 54.0546875 C-157.58052327 51.6221031 -154.49446947 45.55936688 -150.3125 39 C-136.71803446 18.23432096 -121.36433829 2.94407393 -96.48828125 -2.4921875 C-65.27253362 -7.03647327 -30.96889651 -5.77764056 0 0 Z " fill="#010101" transform="translate(990,618)"/>
<path d="M0 0 C7.32012508 1.74916085 14.42837428 4.71431389 21.1875 8 C28.42277077 11.2960678 36.320735 13.04048918 44 15 C45.32837891 15.34224609 45.32837891 15.34224609 46.68359375 15.69140625 C80.04880408 23.24467133 119.36193047 21.32645733 151 8 C152.34794409 7.45322212 153.6968308 6.90875928 155.046875 6.3671875 C156.90808488 5.6172063 158.76928111 4.86718334 160.62890625 4.11328125 C164.38149173 2.60434688 168.15888091 1.26350827 172 0 C172.01981934 1.04341553 172.03963867 2.08683105 172.06005859 3.16186523 C172.13670953 7.0702946 172.22533 10.97838019 172.31738281 14.88647461 C172.35542877 16.57097537 172.39032199 18.25555065 172.421875 19.94018555 C172.46806066 22.37575744 172.52595994 24.81082692 172.5859375 27.24609375 C172.60326431 28.35760048 172.60326431 28.35760048 172.62094116 29.49156189 C172.97395294 42.28452613 177.20422192 54.8665918 184.765625 65.1953125 C186 67 186 67 187 70 C174 76.5 174 76.5 161 83 C159.94514404 83.52932129 158.89028809 84.05864258 157.8034668 84.60400391 C154.07631255 86.45995339 150.29951195 88.20214332 146.52001953 89.94848633 C142.59458308 91.76984016 138.69324165 93.63209249 134.80859375 95.5390625 C125.3552503 100.15993869 116.25144456 104.44917107 106 107 C105.39615479 107.1743457 104.79230957 107.34869141 104.17016602 107.52832031 C81.05410649 112.55253305 59.333909 104.29511498 39.14013672 94.05859375 C34.62470483 91.82508785 30.02207393 89.77419907 25.4375 87.6875 C23.29542009 86.70866771 21.1534927 85.72950158 19.01171875 84.75 C17.97966309 84.27820312 16.94760742 83.80640625 15.88427734 83.3203125 C5.83442266 78.71987115 -4.14582582 74.00966397 -14 69 C-12.74851575 66.471094 -11.46179282 63.96472249 -10.16015625 61.4609375 C-9.46071342 60.09907339 -8.76150137 58.73709074 -8.0625 57.375 C-7.71509766 56.71371094 -7.36769531 56.05242187 -7.00976562 55.37109375 C-0.85848497 43.3002191 -0.47938338 32.19205326 -0.3125 18.875 C-0.27927527 17.04164301 -0.24478097 15.20830857 -0.20898438 13.375 C-0.12467161 8.91679208 -0.05758613 4.45862996 0 0 Z " fill="#020202" transform="translate(866,1121)"/>
<path d="M0 0 C0 3 0 3 -1.71484375 4.97265625 C-2.44832031 5.66230469 -3.18179688 6.35195313 -3.9375 7.0625 C-6.86434414 9.73700793 -6.86434414 9.73700793 -9 13 C-9.66 13 -10.32 13 -11 13 C-9.63422544 8.71506993 -7.79318655 6.56854295 -4.375 3.6875 C-3.55773437 2.99011719 -2.74046875 2.29273438 -1.8984375 1.57421875 C-0.95871094 0.79498047 -0.95871094 0.79498047 0 0 Z " fill="#2C2C2C" transform="translate(827,791)"/>
</svg>
